<?xml version="1.0" encoding="UTF-8" standalone="no"?><!DOCTYPE svg PUBLIC "-//W3C//DTD SVG 1.1//EN" "http://www.w3.org/Graphics/SVG/1.1/DTD/svg11.dtd"><svg width="100%" height="100%" viewBox="0 0 731 731" version="1.1" xmlns="http://www.w3.org/2000/svg" xmlns:xlink="http://www.w3.org/1999/xlink" xml:space="preserve" xmlns:serif="http://www.serif.com/" style="fill-rule:evenodd;clip-rule:evenodd;stroke-miterlimit:10;"><rect id="Tavola-da-disegno1" serif:id="Tavola da disegno1" x="0" y="0" width="730.198" height="730.198" style="fill:none;"/><clipPath id="_clip1"><rect id="Tavola-da-disegno11" serif:id="Tavola da disegno1" x="0" y="0" width="730.198" height="730.198"/></clipPath><g clip-path="url(#_clip1)"><g id="Livello-1" serif:id="Livello 1"><path d="M689.5,365.099c0,181.099 -146.809,327.908 -327.908,327.908c-181.098,-0 -327.907,-146.809 -327.907,-327.908c0,-181.099 146.809,-327.908 327.907,-327.908c181.099,-0 327.908,146.809 327.908,327.908" style="fill:#ff9400;fill-rule:nonzero;"/><path d="M689.5,365.099c0,181.099 -146.809,327.908 -327.908,327.908c-181.098,-0 -327.907,-146.809 -327.907,-327.908c0,-181.099 146.809,-327.908 327.907,-327.908c181.099,-0 327.908,146.809 327.908,327.908Z" style="fill:none;fill-rule:nonzero;stroke:#fff;stroke-width:8px;"/><path d="M328,492.734l-251.837,-1.257l0,-266.066l579.248,20.244l0,248.712l-96.757,-0.482c1.209,5.198 1.848,10.618 1.848,16.188l0,0.71c0,39.334 -31.887,71.22 -71.22,71.22l-92.188,-0c-39.333,-0 -71.22,-31.886 -71.22,-71.22l0,-0.71c0,-5.979 0.737,-11.786 2.126,-17.339Z" style="fill:#fff;fill-rule:nonzero;"/><path d="M647.031,390.444c-0.015,5.085 -2.025,7.954 -6.025,9.143c-3.89,1.156 -6.993,-0.159 -9.257,-3.343c-1.634,-2.298 -1.588,-5.072 -1.588,-7.773c-0.005,-16.581 0.008,-33.162 -0.014,-49.743c-0.037,-28.433 -27.188,-46.401 -53.072,-34.666c-12.43,5.635 -20.362,15.776 -20.972,29.684c-0.781,17.824 -0.303,35.702 -0.426,53.556c-0.015,2.251 -0.137,4.557 -0.638,6.739c-0.859,3.733 -4.55,6.307 -8.211,6.085c-3.745,-0.228 -7.288,-3.498 -7.759,-7.241c-0.141,-1.119 -0.116,-2.263 -0.116,-3.396c-0.004,-31.604 -0.009,-63.207 0.014,-94.811c0.001,-2.106 -0.277,-4.3 0.752,-6.263c1.862,-3.55 4.978,-5.11 8.815,-4.495c3.624,0.58 6.127,2.804 6.742,6.643c0.334,2.089 0.531,4.2 0.89,7.107c6.038,-4.566 11.738,-8.63 18.489,-11.045c31.966,-11.433 66.829,9.458 71.682,43.077c0.262,1.819 0.643,3.647 0.649,5.472c0.061,18.423 0.092,36.847 0.044,55.27m-100.31,111.174c-0.289,5.271 -1.047,10.414 -2.53,15.458c-0.641,2.184 -1.324,4.668 -3.967,5.03c-9.477,1.301 -13.77,8.945 -17.938,15.771c-2.423,3.966 -4.756,9.446 -1.314,14.833c1.055,1.65 0.247,3.595 -1.178,5.379c-4.794,5.992 -11.345,9.645 -17.675,13.505c-3.145,1.918 -6.907,0.716 -9.532,-1.49c-2.886,-2.426 -5.958,-2.947 -9.412,-2.919c-6.383,0.051 -11.825,2.995 -17.349,5.646c-1.287,0.618 -2.05,1.884 -2.744,3.161c-2.403,4.418 -6.053,6.799 -11.145,5.776c-6.541,-1.314 -13.7,0.306 -19.601,-4.116c-1.632,-1.223 -3.019,-2.425 -3.081,-4.722c-0.172,-6.222 -3.731,-10.511 -8.538,-13.827c-6.263,-4.32 -13.07,-6.516 -20.781,-4.463c-3.182,0.848 -5.504,-0.974 -7.412,-3.118c-4.519,-5.079 -7.43,-11.204 -10.65,-17.109c-1.145,-2.098 0.351,-3.909 1.391,-5.472c5.124,-7.699 3.91,-15.549 0.74,-23.43c-2.456,-6.107 -2.545,-6.066 3.749,-7.13c0.696,-0.119 1.371,-0.38 2.069,-0.473c5.817,-0.773 6.563,0.078 7.703,5.731c3.133,15.549 10.349,28.637 22.94,38.791c13.194,10.64 28.434,14.599 44.704,13.223c13.974,-1.183 26.409,-7.168 36.855,-17.045c8.218,-7.77 13.681,-17.108 16.837,-27.73c3.358,-11.3 3.479,-22.745 0.103,-34.232c-5.243,-17.838 -16.46,-30.662 -32.717,-39.03c-8.43,-4.339 -17.529,-6.985 -26.408,-5.795c-11.797,-0.603 -21.917,2.344 -31.224,7.758c-4.425,2.574 -7.653,0.817 -10.699,-1.686c-2.92,-2.4 -5.43,-5.345 -7.89,-8.246c-3.157,-3.724 -2.596,-7.206 1.41,-9.849c1.883,-1.241 3.838,-2.389 5.834,-3.44c2.017,-1.062 4.071,-1.145 5.919,0.458c9.043,7.84 26.199,3.99 32.484,-4.775c4.122,-5.75 8.872,-5.19 13.878,-5.302c4.156,-0.092 8.433,0.64 12.464,2.1c3.344,1.211 5.572,2.851 6.284,6.974c1.369,7.93 7.378,12.399 14.163,15.687c4.929,2.388 10.166,3.372 15.658,1.804c2.559,-0.73 4.688,0.199 6.462,2.146c4.089,4.491 7.786,9.285 10.609,14.659c1.429,2.718 1.662,5.641 -0.318,8.431c-5.138,7.237 -2.95,23.808 3.987,30.394c0.507,0.482 0.971,1.187 1.577,1.358c5.947,1.679 6.571,6.071 6.283,11.326m-168.055,-90.543c-1.914,-9.947 -11.079,-17.254 -21.271,-16.501c-3.982,0.295 -6.404,-0.971 -8.343,-4.221c-1.935,-3.244 -4.36,-6.174 -5.912,-9.68c-1.13,-2.554 -1.173,-4.729 0.514,-7.124c5.528,-7.844 4.723,-19.4 -2.531,-25.388c-4.056,-3.348 -4.17,-6.983 -3.6,-11.235c0.337,-2.513 0.89,-5.019 1.601,-7.453c1.018,-3.483 2.729,-5.972 6.858,-6.933c9.684,-2.254 16.477,-11.809 15.716,-21.74c-0.277,-3.626 1.014,-6.004 3.877,-7.768c3.364,-2.073 6.751,-4.118 10.212,-6.023c2.724,-1.5 5.471,-1.227 7.913,0.723c5.183,4.137 11.064,2.887 16.63,1.704c3.907,-0.831 7.353,-3.001 9.88,-6.664c2.074,-3.006 5.806,-1.45 8.781,-1.319c2.496,0.11 5.016,0.872 7.415,1.673c3.605,1.201 6.545,2.45 7.139,7.464c0.821,6.933 11.183,15.809 17.965,14.908c8.344,-1.109 11.679,3.697 15.056,9.392c0.784,1.324 1.224,2.858 2.051,4.149c1.931,3.017 1.422,5.398 -0.763,8.286c-5.049,6.677 -3.232,19.791 3.593,25.081c3.976,3.081 4.458,6.469 3.178,10.78c-0.479,1.611 -0.581,3.334 -1.065,4.944c-1.458,4.86 -3.033,8.912 -9.347,10.163c-7.533,1.493 -14.249,10.94 -13.459,18.48c0.665,6.358 -2.111,9.736 -6.977,12.443c-2.702,1.504 -5.371,3.092 -8.178,4.374c-1.997,0.911 -4.006,0.752 -5.979,-0.688c-8.603,-6.279 -20.383,-4.475 -26.937,4.008c-1.731,2.242 -2.336,2.484 -5.907,2.36c-5.142,-0.235 -10.027,-1.536 -14.682,-3.679c-1.893,-0.871 -3.011,-2.349 -3.428,-4.516m-63.048,-60.873c-14.173,0.057 -28.348,0.018 -42.522,0.018l0,-0.013c-14.173,-0 -28.348,0.077 -42.521,-0.056c-3.345,-0.032 -4.025,0.731 -3.056,4.082c7.726,26.724 41.57,38.058 63.787,21.242c2.391,-1.81 4.779,-3.578 7.991,-3.511c3.674,0.078 6.156,1.921 7.533,5.232c1.42,3.414 0.528,6.466 -2.06,8.897c-6.656,6.254 -14.596,10.279 -23.406,12.383c-32.063,7.659 -63.228,-11.537 -70.879,-43.52c-7.821,-32.692 14.365,-65.551 47.563,-70.439c31.187,-4.593 59.387,14.6 66.092,45.094c0.755,3.435 1.12,7.002 1.231,10.522c0.208,6.594 -3.19,10.043 -9.753,10.069m-125.497,7.934c-6.154,21.393 -20.721,35.322 -42.468,40.351c-21.832,5.049 -40.893,-0.846 -56.346,-17.43c-9.887,-10.611 -15.071,-23.126 -15.095,-37.659c-0.054,-33.167 -0.053,-66.333 -0.042,-99.5c0.001,-6.439 3.101,-10.224 8.191,-10.231c5.161,-0.006 8.48,3.701 8.521,10.099c0.108,17.008 0.049,34.017 0.057,51.026c0.001,1.546 0,3.093 0,5.773c6.795,-6.029 13.165,-10.724 20.769,-13.239c22.763,-7.528 43.572,-4.036 61.003,12.746c16.632,16.013 21.758,35.998 15.41,58.064m307.213,-16.471c-0.008,-15.727 -0.025,-31.455 0.008,-47.182c0.005,-2.669 -0.151,-5.39 1.789,-7.669c2.27,-2.667 5.24,-3.425 8.426,-2.802c2.929,0.572 5.144,2.507 5.914,5.477c0.526,2.025 0.699,4.191 0.702,6.294c0.043,30.747 0.039,61.494 0.01,92.24c-0.002,1.824 -0.11,3.694 -0.514,5.463c-0.929,4.063 -4.43,6.756 -8.216,6.569c-4.41,-0.217 -7.659,-3.269 -8.022,-7.811c-0.213,-2.676 -0.093,-5.381 -0.094,-8.072c-0.007,-14.169 -0.003,-28.338 -0.003,-42.507m8.375,-93.394c5.74,-0.02 10.44,4.832 10.36,10.694c-0.079,5.828 -4.902,10.473 -10.683,10.293c-5.901,-0.184 -10.197,-4.762 -10.158,-10.822c0.035,-5.409 4.92,-10.147 10.481,-10.165m-429.544,258.056c83.214,0.002 152.404,125.953 235.618,125.948c115.969,-0.006 180.586,-62.759 296.553,-62.639c4.287,0.004 47.076,-75.268 47.076,-75.268c-0.119,-182.458 9.689,-53.144 9.666,-235.601c0,-0 -73.026,-99.826 -79.469,-99.827c-99.947,-0.026 -126.173,-85.062 -226.12,-85.062l0,0.042c-98.956,-0 -184.37,151.497 -283.324,151.492" style="fill:#ff9400;fill-rule:nonzero;"/><path d="M455.559,350.034c0.052,-27.164 -21.108,-49.486 -50.542,-49.389c-24.104,0.079 -49.281,25.021 -48.652,49.454c0.728,28.282 22.907,49.905 50.371,49.764c26.965,-0.138 49.102,-22.802 48.823,-49.829" style="fill:#ff9400;fill-rule:nonzero;"/><path d="M267.04,333.387c-12.192,0.003 -24.385,-0.061 -36.576,0.048c-3.049,0.027 -3.94,-0.654 -3.016,-3.874c4.41,-15.365 19.908,-27.618 35.87,-28.93c21.313,-1.751 36.907,11.418 42.885,26.84c2.21,5.702 2.067,5.914 -3.863,5.914c-11.766,-0.001 -23.533,-0.001 -35.3,0.002" style="fill:#ff9400;fill-rule:nonzero;"/><path d="M134.142,300.588c23.115,-0.03 41.6,18.173 41.588,40.958c-0.012,23.36 -18.163,41.728 -41.308,41.801c-23.186,0.073 -41.447,-18.248 -41.397,-41.534c0.05,-23.295 17.903,-41.194 41.117,-41.225" style="fill:#ff9400;fill-rule:nonzero;"/><g transform="matrix(0.825119,-0.564959,0.513321,0.749702,-4.30012,-3.21541)"><text x="100.157px" y="489.155px" style="font-family:'Comfortaa-Bold', 'Comfortaa', sans-serif;font-weight:700;font-size:57.231px;fill:#3e578f;">ducational</text></g><path d="M263.109,436.747c-37.183,0 -67.325,-30.143 -67.325,-67.326l0,-37.33c0,-37.182 30.142,-67.325 67.325,-67.325c37.183,0 67.325,30.143 67.325,67.325l0,37.33c0,37.183 -30.142,67.326 -67.325,67.326" style="fill:#ff9400;fill-rule:nonzero;"/><g transform="matrix(0.820205,-0.57207,0.519782,0.745237,1.99554,1.45115)"><text x="-45.402px" y="535.585px" style="font-family:'Comfortaa-Bold', 'Comfortaa', sans-serif;font-weight:700;font-size:221.218px;fill:#3e578f;">e</text></g></g></g></svg>