<?xml version="1.0" encoding="UTF-8" standalone="no"?><!DOCTYPE svg PUBLIC "-//W3C//DTD SVG 1.1//EN" "http://www.w3.org/Graphics/SVG/1.1/DTD/svg11.dtd"><svg width="100%" height="100%" viewBox="0 0 800 600" version="1.1" xmlns="http://www.w3.org/2000/svg" xmlns:xlink="http://www.w3.org/1999/xlink" xml:space="preserve" xmlns:serif="http://www.serif.com/" style="fill-rule:evenodd;clip-rule:evenodd;stroke-linejoin:round;stroke-miterlimit:2;"><rect id="Num1" x="0" y="0" width="800" height="600" style="fill:none;"/><g id="Num11" serif:id="Num1"><path d="M800,30c0,-16.557 -13.443,-30 -30,-30l-740,0c-16.557,0 -30,13.443 -30,30l0,540c0,16.557 13.443,30 30,30l740,0c16.557,0 30,-13.443 30,-30l0,-540Z" style="fill:#f5922b;"/><text x="74.378px" y="306.62px" style="font-family:'Roboto-Medium', 'Roboto';font-weight:500;font-size:288px;fill:#fff;">+12,6</text><g transform="matrix(1,0,0,1,189.179,390.702)"><text x="18.852px" y="27px" style="font-family:'Roboto-Regular', 'Roboto';font-size:36px;fill:#fff;">l&apos;<tspan x="32.985px " y="27px ">a</tspan>ument<tspan x="154.309px " y="27px ">o</tspan> in punti per<tspan x="361.695px " y="27px ">c</tspan>entuali della</text><text x="54.008px" y="63px" style="font-family:'Roboto-Regular', 'Roboto';font-size:36px;fill:#fff;">quota di aule dotate di lim, tr<tspan x="507.313px " y="63px ">a</tspan> gli</text><text x="170.604px" y="99px" style="font-family:'Roboto-Regular', 'Roboto';font-size:36px;fill:#fff;">anni scolastici 2013/14 e</text><text x="387.447px" y="135px" style="font-family:'Roboto-Regular', 'Roboto';font-size:36px;fill:#fff;">2014/2015.</text></g></g></svg>