<?xml version="1.0" encoding="UTF-8" standalone="no"?><!DOCTYPE svg PUBLIC "-//W3C//DTD SVG 1.1//EN" "http://www.w3.org/Graphics/SVG/1.1/DTD/svg11.dtd"><svg width="100%" height="100%" viewBox="0 0 801 600" version="1.1" xmlns="http://www.w3.org/2000/svg" xmlns:xlink="http://www.w3.org/1999/xlink" xml:space="preserve" xmlns:serif="http://www.serif.com/" style="fill-rule:evenodd;clip-rule:evenodd;stroke-linejoin:round;stroke-miterlimit:2;"><rect id="Num2" x="0.437" y="0" width="800" height="600" style="fill:none;"/><path d="M800.437,30c-0,-16.557 -13.443,-30 -30,-30l-740,0c-16.558,0 -30,13.443 -30,30l-0,540c-0,16.557 13.442,30 30,30l740,0c16.557,0 30,-13.443 30,-30l-0,-540Z" style="fill:#21568a;"/><g transform="matrix(1,0,0,1,180.454,-25.5109)"><text x="171.679px" y="332.13px" style="font-family:'Roboto-Medium', 'Roboto';font-weight:500;font-size:288px;fill:#fff;">64</text><text x="499.054px" y="332.13px" style="font-family:'Roboto-Medium', 'Roboto';font-weight:500;font-size:144px;fill:#fff;">%</text></g><g transform="matrix(1,0,0,1,42.4662,390.702)"><text x="30.72px" y="27px" style="font-family:'Roboto-Regular', 'Roboto';font-size:36px;fill:#fff;">P<tspan x="53.202px 72.275px 84.122px " y="27px 27px 27px ">erc</tspan>entuale di gio<tspan x="316.962px 334.136px " y="27px 27px ">va</tspan>ni in Italia tr<tspan x="539.079px " y="27px ">a</tspan> i 16 e i 19</text><text x="146.525px" y="63px" style="font-family:'Roboto-Regular', 'Roboto';font-size:36px;fill:#fff;">anni con competenz<tspan x="470.085px " y="63px ">e</tspan> digitali base o</text><text x="465.989px" y="99px" style="font-family:'Roboto-Regular', 'Roboto';font-size:36px;fill:#fff;">superiori (2019)</text></g></svg>