<?xml version="1.0" encoding="UTF-8" standalone="no"?><!DOCTYPE svg PUBLIC "-//W3C//DTD SVG 1.1//EN" "http://www.w3.org/Graphics/SVG/1.1/DTD/svg11.dtd"><svg width="100%" height="100%" viewBox="0 0 801 600" version="1.1" xmlns="http://www.w3.org/2000/svg" xmlns:xlink="http://www.w3.org/1999/xlink" xml:space="preserve" xmlns:serif="http://www.serif.com/" style="fill-rule:evenodd;clip-rule:evenodd;stroke-linejoin:round;stroke-miterlimit:2;"><rect id="Num3" x="0.573" y="0" width="800" height="600" style="fill:none;"/><path d="M800.573,30c0,-16.557 -13.442,-30 -30,-30l-739.999,0c-16.558,0 -30.001,13.443 -30.001,30l0,540c0,16.557 13.443,30 30.001,30l739.999,0c16.558,0 30,-13.443 30,-30l0,-540Z" style="fill:#f5922b;"/><text x="128.816px" y="247.238px" style="font-family:'Roboto-Medium', 'Roboto';font-weight:500;font-size:144px;fill:#fff;">2,7</text><text x="126.461px" y="433.48px" style="font-family:'Roboto-Medium', 'Roboto';font-weight:500;font-size:144px;fill:#fff;">1,8</text><g transform="matrix(1,0,0,1,357.784,143.457)"><text x="0px" y="27px" style="font-family:'Roboto-Regular', 'Roboto';font-size:36px;fill:#fff;">LIM ogni 100</text><text x="0px" y="63px" style="font-family:'Roboto-Regular', 'Roboto';font-size:36px;fill:#fff;">alunni nelle</text><text x="0px" y="111px" style="font-family:'Roboto-Bold', 'Roboto';font-weight:700;font-size:36px;fill:#fff;">scuole secondarie</text></g><g transform="matrix(1,0,0,1,357.784,329.699)"><text x="0px" y="27px" style="font-family:'Roboto-Regular', 'Roboto';font-size:36px;fill:#fff;">LIM ogni 100</text><text x="0px" y="63px" style="font-family:'Roboto-Regular', 'Roboto';font-size:36px;fill:#fff;">alunni nelle</text><text x="0px" y="111px" style="font-family:'Roboto-Bold', 'Roboto';font-weight:700;font-size:36px;fill:#fff;">scuole superiori</text></g></svg>