<?xml version="1.0" encoding="UTF-8" standalone="no"?><!DOCTYPE svg PUBLIC "-//W3C//DTD SVG 1.1//EN" "http://www.w3.org/Graphics/SVG/1.1/DTD/svg11.dtd"><svg width="100%" height="100%" viewBox="0 0 801 600" version="1.1" xmlns="http://www.w3.org/2000/svg" xmlns:xlink="http://www.w3.org/1999/xlink" xml:space="preserve" xmlns:serif="http://www.serif.com/" style="fill-rule:evenodd;clip-rule:evenodd;stroke-linejoin:round;stroke-miterlimit:2;"><rect id="Num4" x="0.447" y="0" width="800" height="600" style="fill:none;"/><path d="M800.447,30c-0,-16.557 -13.443,-30 -30,-30l-740,0c-16.558,0 -30,13.443 -30,30l-0,540c-0,16.557 13.442,30 30,30l740,0c16.557,0 30,-13.443 30,-30l-0,-540Z" style="fill:#21568a;"/><text x="230.924px" y="306.62px" style="font-family:'Roboto-Medium', 'Roboto';font-weight:500;font-size:288px;fill:#fff;">26,4</text><g transform="matrix(1,0,0,1,42.4763,390.702)"><text x="88.411px" y="27px" style="font-family:'Roboto-Regular', 'Roboto';font-size:36px;fill:#fff;">P<tspan x="110.894px 129.966px 141.814px " y="27px 27px 27px ">erc</tspan>entuale di aule in Abruzz<tspan x="550.224px " y="27px ">o</tspan> dotate di</text><text x="211.159px" y="63px" style="font-family:'Roboto-Regular', 'Roboto';font-size:36px;fill:#fff;">la<tspan x="239.214px 256.388px " y="63px 63px ">va</tspan>gna inter<tspan x="415.435px " y="63px ">a</tspan>ttiv<tspan x="484.446px " y="63px ">a</tspan> multimediale</text><text x="493.675px" y="99px" style="font-family:'Roboto-Regular', 'Roboto';font-size:36px;fill:#fff;">(a.s. 2014/15)</text></g></svg>