<?xml version="1.0" encoding="UTF-8" standalone="no"?>
<!DOCTYPE svg PUBLIC "-//W3C//DTD SVG 1.1//EN" "http://www.w3.org/Graphics/SVG/1.1/DTD/svg11.dtd">
<svg width="100%" height="100%" viewBox="0 0 1037 660" version="1.1" xmlns="http://www.w3.org/2000/svg" xmlns:xlink="http://www.w3.org/1999/xlink" xml:space="preserve" xmlns:serif="http://www.serif.com/" style="fill-rule:evenodd;clip-rule:evenodd;stroke-linejoin:round;stroke-miterlimit:2;">
    <rect x="45.029" y="494.17" width="785.452" height="2.785" style="fill:rgb(63,61,86);"/>
    <path d="M899.868,21.895C899.868,9.811 890.057,0 877.973,0L21.895,0C9.811,0 0,9.811 0,21.895L0,416.008C0,428.093 9.811,437.904 21.895,437.904L877.973,437.904C890.057,437.904 899.868,428.093 899.868,416.008L899.868,21.895Z" style="fill:rgb(63,171,187);"/>
    <g transform="matrix(1,0,0,1,-81.5507,-120)">
        <path d="M981.419,153.685L981.419,141.655L953.749,141.655L953.749,120L941.718,120L941.718,141.655L121.251,141.655L121.251,120L109.22,120L109.22,141.655L81.551,141.655L81.551,153.685L109.22,153.685L109.22,524.219L81.551,524.219L81.551,536.249L109.22,536.249L109.22,557.904L121.251,557.904L121.251,536.249L941.718,536.249L941.718,557.904L953.749,557.904L953.749,536.249L981.419,536.249L981.419,524.219L953.749,524.219L953.749,153.685L981.419,153.685ZM941.719,524.219L121.251,524.219L121.251,153.685L941.718,153.685L941.719,524.219Z" style="fill:rgb(60,0,136);fill-opacity:0.1;fill-rule:nonzero;"/>
    </g>
    <rect x="397.739" y="57.746" width="141.887" height="134.967" style="fill:white;"/>
    <rect x="413.862" y="73.869" width="109.64" height="83.842" style="fill:rgb(249,168,38);"/>
    <rect x="437.989" y="87.648" width="38.437" height="38.437" style="fill:rgb(242,242,242);"/>
    <g transform="matrix(1,0,0,1,-81.5507,-120)">
        <path d="M534.253,217.259L534.253,263.933L580.927,263.933L580.927,217.259L534.253,217.259ZM578.903,261.908L536.278,261.908L536.278,219.284L578.903,219.284L578.903,261.908Z" style="fill:rgb(63,61,86);fill-rule:nonzero;"/>
    </g>
    <rect x="413.754" y="166.033" width="59.637" height="3.139" style="fill:rgb(242,242,242);"/>
    <circle cx="468.682" cy="65.592" r="6.278" style="fill:rgb(63,61,86);"/>
    <rect x="451.252" y="252.409" width="141.887" height="134.967" style="fill:white;"/>
    <rect x="467.375" y="268.532" width="109.64" height="83.842" style="fill:rgb(249,168,38);"/>
    <rect x="467.266" y="362.266" width="59.637" height="3.139" style="fill:rgb(242,242,242);"/>
    <rect x="467.266" y="371.682" width="59.637" height="3.139" style="fill:rgb(242,242,242);"/>
    <circle cx="486.884" cy="310.476" r="12.555" style="fill:rgb(63,61,86);"/>
    <circle cx="522.195" cy="310.476" r="12.555" style="fill:rgb(242,242,242);"/>
    <circle cx="557.506" cy="310.476" r="12.555" style="fill:rgb(255,101,132);"/>
    <circle cx="522.195" cy="260.256" r="6.278" style="fill:rgb(63,61,86);"/>
    <rect x="234.102" y="210.238" width="141.887" height="134.967" style="fill:white;"/>
    <rect x="250.225" y="226.362" width="109.64" height="83.842" style="fill:rgb(249,168,38);"/>
    <circle cx="297.745" cy="278.082" r="26.619" style="fill:rgb(242,242,242);"/>
    <g transform="matrix(1,0,0,1,-81.5507,-120)">
        <path d="M387.141,418.614C368.833,418.614 353.768,403.548 353.768,385.24C353.768,366.931 368.833,351.866 387.141,351.866C405.45,351.866 420.515,366.931 420.515,385.24C420.495,403.54 405.442,418.593 387.141,418.614ZM387.141,353.079C369.499,353.079 354.981,367.597 354.981,385.24C354.981,402.882 369.499,417.4 387.141,417.4C404.784,417.4 419.302,402.882 419.302,385.24C419.302,385.24 419.302,385.24 419.302,385.24C419.282,367.604 404.777,353.099 387.141,353.079Z" style="fill:rgb(63,61,86);fill-rule:nonzero;"/>
    </g>
    <rect x="250.117" y="327.943" width="59.637" height="3.139" style="fill:rgb(242,242,242);"/>
    <rect x="250.117" y="318.526" width="83.178" height="3.139" style="fill:rgb(242,242,242);"/>
    <circle cx="305.045" cy="218.085" r="6.278" style="fill:rgb(63,61,86);"/>
    <rect x="78.153" y="55.339" width="141.887" height="134.967" style="fill:white;"/>
    <rect x="94.277" y="71.463" width="109.64" height="83.842" style="fill:rgb(249,168,38);"/>
    <rect x="137.303" y="137.099" width="23.587" height="6.99" style="fill:rgb(63,61,86);"/>
    <rect x="108.788" y="82.68" width="80.617" height="2.996" style="fill:rgb(63,61,86);"/>
    <rect x="108.788" y="92.165" width="80.617" height="2.996" style="fill:rgb(63,61,86);"/>
    <rect x="108.788" y="101.651" width="80.617" height="2.996" style="fill:rgb(63,61,86);"/>
    <rect x="108.788" y="111.137" width="80.617" height="2.996" style="fill:rgb(63,61,86);"/>
    <rect x="108.788" y="120.623" width="80.617" height="2.996" style="fill:rgb(63,61,86);"/>
    <rect x="94.168" y="163.627" width="59.637" height="3.139" style="fill:rgb(242,242,242);"/>
    <rect x="94.168" y="171.474" width="83.178" height="3.139" style="fill:rgb(242,242,242);"/>
    <circle cx="149.097" cy="63.186" r="6.278" style="fill:rgb(63,61,86);"/>
    <g transform="matrix(1,0,0,1,-81.5507,-120)">
        <path d="M736.341,263.51L839.099,271.06L868.159,273.195L866.354,271.39L871.812,350.331L874.54,389.802C874.651,391.397 874.764,392.991 874.871,394.586C874.96,395.912 875.326,397.19 873.755,397.517C870.632,398.168 867.38,398.439 864.216,398.838C857.785,399.65 851.339,400.332 844.879,400.887C819.031,403.106 793.048,403.269 767.175,401.374C760.71,400.9 754.256,400.298 747.813,399.566C745.417,399.294 742.443,399.192 741.568,396.506C740.666,393.736 740.511,390.586 740.103,387.712C738.287,374.906 737.048,362.035 736.389,349.098C735.046,323.315 735.96,297.464 739.119,271.84C739.507,268.702 739.93,265.569 740.388,262.441C740.72,260.169 737.243,259.188 736.908,261.481C733.029,287.961 731.536,314.736 732.45,341.482C732.916,354.864 733.987,368.206 735.663,381.508C736.087,384.868 736.548,388.223 737.045,391.573C737.441,394.239 737.538,397.382 739.125,399.673C740.656,401.883 743.226,402.592 745.752,402.929C748.967,403.358 752.204,403.665 755.432,403.98C782.231,406.593 809.2,406.992 836.065,405.172C842.827,404.714 849.577,404.116 856.315,403.378C859.635,403.014 862.95,402.616 866.262,402.184C867.883,401.973 869.503,401.754 871.121,401.528C872.633,401.421 874.129,401.16 875.588,400.751C878.629,399.654 878.628,396.721 878.439,393.988L877.736,383.821L876.33,363.488L870.666,281.557L869.963,271.39C869.936,270.411 869.138,269.613 868.159,269.586L765.401,262.036L736.341,259.901C734.024,259.73 734.035,263.34 736.341,263.51L736.341,263.51Z" style="fill:white;fill-rule:nonzero;"/>
    </g>
    <g transform="matrix(1,0,0,1,-81.5507,-120)">
        <path d="M780.378,306.118C780.896,304.74 779.592,307.707 780.247,306.395C780.421,306.046 780.584,305.693 780.768,305.349C781.136,304.665 781.543,304.004 781.988,303.367C782.431,302.733 783.104,302.488 781.794,303.592C782.065,303.314 782.319,303.02 782.554,302.711C783.166,302.041 783.817,301.409 784.506,300.818C785.001,300.394 785.937,300.032 784.262,300.973C784.593,300.787 784.901,300.508 785.217,300.296C785.866,299.859 786.536,299.455 787.226,299.084C787.57,298.898 787.919,298.721 788.273,298.552C788.873,298.265 789.872,298.167 787.983,298.65C788.794,298.443 789.579,298.059 790.39,297.828C791.079,297.633 791.776,297.468 792.481,297.334C793.11,297.216 794.253,297.305 792.103,297.355C792.488,297.346 792.881,297.272 793.266,297.246C794.041,297.193 794.818,297.181 795.595,297.211C795.983,297.226 796.368,297.264 796.755,297.288C798.042,297.364 794.808,296.93 796.755,297.301C797.518,297.446 798.273,297.637 799.014,297.871C799.373,298.025 799.743,298.155 800.119,298.259L799.121,297.829C799.366,297.935 799.609,298.046 799.849,298.163C800.565,298.509 801.259,298.898 801.929,299.326C802.263,299.54 802.582,299.771 802.909,299.994C803.936,300.692 801.532,298.818 802.989,300.095C803.483,300.528 803.957,300.983 804.411,301.46C804.684,301.746 804.949,302.039 805.206,302.339C805.639,302.843 805.971,303.764 805.067,302.113C805.894,303.625 806.928,304.996 807.706,306.554C808.371,307.883 807.101,304.903 807.606,306.302C807.742,306.68 807.888,307.052 808.016,307.432C808.273,308.193 808.494,308.964 808.681,309.746C808.867,310.529 808.959,311.328 809.131,312.112C808.657,309.955 809.003,311.203 809.05,311.789C809.092,312.322 809.118,312.856 809.127,313.391C809.137,314.059 809.121,314.726 809.078,315.393C809.053,315.784 808.965,316.199 808.97,316.589C808.943,314.564 809.117,315.573 808.991,316.253C808.846,317.041 808.659,317.82 808.431,318.588C808.316,318.972 808.192,319.353 808.057,319.731C807.937,320.066 807.81,320.399 807.677,320.729C808.065,319.825 808.096,319.739 807.77,320.471C805.776,324.458 803.293,328.175 801.333,332.175C796.47,342.148 794.834,353.392 796.653,364.337C797.154,366.152 798.345,367.701 799.97,368.651C801.655,369.617 803.655,369.879 805.532,369.379C809.601,368.062 811.2,364.51 810.573,360.5C810.353,359.087 810.689,361.759 810.545,360.337C810.483,359.727 810.421,359.118 810.378,358.506C810.292,357.283 810.257,356.058 810.273,354.832C810.286,353.781 810.337,352.732 810.424,351.684C810.427,351.069 810.49,350.457 810.614,349.855C810.613,349.859 810.381,351.306 810.538,350.473C810.603,350.129 810.65,349.781 810.711,349.437C811.126,347.108 811.725,344.816 812.504,342.582C812.677,342.086 812.866,341.597 813.049,341.104C813.531,339.803 812.548,342.148 813.13,340.889C813.65,339.766 814.187,338.658 814.779,337.571C817.264,333.006 820.074,328.729 821.885,323.819C823.265,319.968 823.811,315.867 823.486,311.789C822.817,303.37 819.247,294.828 812.595,289.378C805.628,283.578 796.289,281.45 787.498,283.659C777.841,285.994 769.948,292.979 766.457,302.28C765.123,305.82 767.936,310.348 771.498,311.159C775.604,312.094 778.95,309.909 780.378,306.118L780.378,306.118Z" style="fill:white;fill-rule:nonzero;"/>
    </g>
    <g transform="matrix(1,0,0,1,-81.5507,-120)">
        <path d="M805.596,392.116C808.887,392.116 811.596,389.408 811.596,386.116C811.596,382.825 808.887,380.116 805.596,380.116C802.304,380.116 799.596,382.825 799.596,386.116C799.632,389.394 802.318,392.08 805.596,392.116Z" style="fill:white;fill-rule:nonzero;"/>
    </g>
    <rect x="39.789" y="481.99" width="33.685" height="33.685" style="fill:rgb(249,168,38);"/>
    <g transform="matrix(1,0,0,1,-81.5507,-120)">
        <path d="M175.477,616.426L134.574,616.426L134.574,575.523L175.477,575.523L175.477,616.426ZM136.352,614.648L173.698,614.648L173.698,577.301L136.352,577.301L136.352,614.648Z" style="fill:rgb(63,61,86);fill-rule:nonzero;"/>
    </g>
    <g transform="matrix(1,0,0,1,-81.5507,-120)">
        <path d="M905.026,420.156L900.214,434.593C900.214,434.593 870.138,469.481 891.793,474.293C913.447,479.105 915.853,436.999 915.853,436.999L921.868,424.969L905.026,420.156Z" style="fill:rgb(255,184,184);fill-rule:nonzero;"/>
    </g>
    <g transform="matrix(1,0,0,1,-81.5507,-120)">
        <path d="M938.711,245.717C938.711,245.717 931.493,244.514 929.087,273.387C926.681,302.259 925.478,352.787 925.478,352.787L897.808,423.766L932.696,434.593L949.538,353.99L938.711,245.717Z" style="fill:rgb(87,90,137);fill-rule:nonzero;"/>
    </g>
    <path d="M841.521,555.199L837.912,578.057L870.394,578.057L869.191,555.199L841.521,555.199Z" style="fill:rgb(255,184,184);fill-rule:nonzero;"/>
    <path d="M946.185,580.463L943.778,611.742L965.433,614.148L965.433,578.057L946.185,580.463Z" style="fill:rgb(255,184,184);fill-rule:nonzero;"/>
    <g transform="matrix(1,0,0,1,-81.5507,-120)">
        <path d="M936.305,376.847L908.635,535.648L915.853,680.011L953.147,680.011L953.147,548.881L989.238,481.511L1018.11,565.723L1025.33,706.478L1066.23,699.26L1056.61,562.114C1056.61,562.114 1049.39,379.253 1042.17,376.847C1034.95,374.441 936.305,376.847 936.305,376.847Z" style="fill:rgb(47,46,65);fill-rule:nonzero;"/>
    </g>
    <g transform="matrix(1,0,0,1,-81.5507,-120)">
        <path d="M926.681,690.839C926.681,690.839 926.681,678.808 917.056,686.026C907.432,693.245 895.402,706.478 895.402,706.478C895.402,706.478 849.687,731.742 882.168,735.351C914.65,738.96 935.102,718.508 935.102,718.508L938.711,722.117C938.711,722.117 957.959,718.508 957.959,713.696C957.82,709.664 957.418,705.646 956.756,701.666C956.095,697.686 954.226,681.26 951.281,685.448C948.335,689.636 931.493,698.057 926.681,690.839Z" style="fill:rgb(47,46,65);fill-rule:nonzero;"/>
    </g>
    <g transform="matrix(1,0,0,1,-81.5507,-120)">
        <path d="M1048.19,724.524C1048.19,724.524 1026.53,713.696 1021.72,723.321C1016.91,732.945 1013.3,752.193 1013.3,752.193C1013.3,752.193 997.659,782.269 1025.33,779.863C1053,777.457 1051.8,761.818 1051.8,758.208C1051.8,754.599 1050.59,746.178 1051.8,742.569C1053,738.96 1048.19,724.524 1048.19,724.524Z" style="fill:rgb(47,46,65);fill-rule:nonzero;"/>
    </g>
    <circle cx="919.116" cy="44.512" r="33.685" style="fill:rgb(255,184,184);"/>
    <path d="M896.86,60.753L895.657,104.062L938.966,100.453L938.966,60.753L896.86,60.753Z" style="fill:rgb(255,184,184);fill-rule:nonzero;"/>
    <g transform="matrix(1,0,0,1,-81.5507,-120)">
        <path d="M1022.92,198.799C1022.92,198.799 1002.47,212.032 996.456,214.438C990.441,216.844 977.208,204.814 977.208,204.814C977.208,204.814 973.599,207.22 973.599,209.626C973.599,212.032 971.193,221.656 971.193,221.656L942.32,316.696L944.726,384.065C944.726,384.065 1032.55,392.487 1042.17,381.659C1051.8,370.832 1037.36,215.641 1037.36,215.641L1022.92,198.799Z" style="fill:white;fill-rule:nonzero;"/>
    </g>
    <g transform="matrix(1,0,0,1,-81.5507,-120)">
        <path d="M1016.91,224.062C1016.91,224.062 984.426,236.093 973.599,225.265C973.599,225.265 989.238,228.874 1016.91,224.062Z" style="fill-opacity:0.1;fill-rule:nonzero;"/>
    </g>
    <g transform="matrix(1,0,0,1,-81.5507,-120)">
        <path d="M1102.32,485.12C1089.09,493.541 1045.78,504.369 1045.78,504.369C1045.78,504.369 1041.05,402.532 1024.13,386.472C1007.3,370.483 979.818,255.221 1004.53,235.178C1004.64,235.075 1004.76,234.979 1004.88,234.89L1020.52,198.799C1020.52,198.799 1022.92,195.189 1027.74,200.002C1031.63,204.173 1035.25,208.593 1038.56,213.235L1039.25,213.512L1072.25,226.468L1059.01,285.417C1059.01,285.417 1115.56,476.699 1102.32,485.12Z" style="fill:rgb(87,90,137);fill-rule:nonzero;"/>
    </g>
    <g transform="matrix(1,0,0,1,-81.5507,-120)">
        <path d="M1039.25,213.512L1030.14,246.92L1004.53,235.178C1004.64,235.075 1004.76,234.979 1004.88,234.89L1020.52,198.799C1020.52,198.799 1022.92,195.189 1027.74,200.002C1031.63,204.173 1035.25,208.593 1038.56,213.235L1039.25,213.512Z" style="fill-opacity:0.1;fill-rule:nonzero;"/>
    </g>
    <g transform="matrix(1,0,0,1,-81.5507,-120)">
        <path d="M976.606,204.212L972.997,245.115L972.805,246.98L945.328,508.579C945.328,508.579 921.267,500.158 912.846,490.534C904.424,480.91 932.094,373.84 932.094,373.84L934.5,239.1C934.5,239.1 955.842,224.074 964.564,215.821C966.609,213.897 967.957,212.345 968.185,211.43C969.388,206.618 976.606,204.212 976.606,204.212Z" style="fill:rgb(87,90,137);fill-rule:nonzero;"/>
    </g>
    <g transform="matrix(1,0,0,1,-81.5507,-120)">
        <path d="M976.606,204.212L972.997,245.115L972.805,246.98L955.553,244.514L964.564,215.821C966.609,213.897 967.957,212.345 968.185,211.43C969.388,206.618 976.606,204.212 976.606,204.212Z" style="fill-opacity:0.1;fill-rule:nonzero;"/>
    </g>
    <g transform="matrix(1,0,0,1,-81.5507,-120)">
        <path d="M1040.97,406.923L1027.74,418.953C1027.74,418.953 1033.75,444.217 1040.97,445.42C1040.97,445.42 1045.78,438.202 1046.98,432.187C1048.19,426.172 1059.01,420.156 1059.01,420.156L1040.97,406.923Z" style="fill:rgb(255,184,184);fill-rule:nonzero;"/>
    </g>
    <g transform="matrix(1,0,0,1,-81.5507,-120)">
        <path d="M1056.61,224.062L1072.25,226.468C1072.25,226.468 1123.98,314.29 1117.96,345.568C1111.95,376.847 1063.83,430.984 1063.83,430.984L1033.75,406.923L1078.26,346.771L1055.4,274.59L1056.61,224.062Z" style="fill:rgb(87,90,137);fill-rule:nonzero;"/>
    </g>
    <g transform="matrix(1,0,0,1,-81.5507,-120)">
        <path d="M966.906,168.296C966.906,168.296 966.906,138.589 974.125,131.838L982.788,131.838C982.788,131.838 992.894,116.984 1005.89,122.386C1018.88,127.787 1040.54,137.239 1039.1,152.092C1037.65,166.945 1033.15,176.543 1033.15,176.543C1033.15,176.543 1030.74,176.543 1025.38,168.468C1018.21,157.678 1034.76,161.041 1013.11,156.99C991.451,152.939 978.457,147.538 975.569,152.939C972.682,158.341 966.906,168.296 966.906,168.296Z" style="fill:rgb(47,46,65);fill-rule:nonzero;"/>
    </g>
    <g transform="matrix(1,0,0,1,-81.5507,-120)">
        <path d="M982.645,133.854C982.645,133.854 983.799,125.172 988.548,123.302L982.645,133.854Z" style="fill:rgb(47,46,65);fill-rule:nonzero;"/>
    </g>
    <g transform="matrix(1,0,0,1,-81.5507,-120)">
        <path d="M982.624,135.64C982.624,135.64 980.214,127.219 983.822,123.609L982.624,135.64Z" style="fill:rgb(47,46,65);fill-rule:nonzero;"/>
    </g>
</svg>
